<?xml version="1.0" encoding="UTF-8"?>
<svg id="Layer_2" data-name="Layer 2" xmlns="http://www.w3.org/2000/svg" viewBox="0 0 297.9 109.65">
  <g id="Aube">
    <g>
      <path d="M61.05,106.5v-3.15c2.7-.8,4.58-1.8,5.62-3,1.05-1.2,1.58-2.85,1.58-4.95,0-1.9-.35-3.7-1.05-5.4l-6.15-16.65H26.85l-3,12.45c-1.1,4.4-1.65,7.4-1.65,9,0,2.5.9,4.4,2.7,5.7,1.8,1.3,4.8,2.25,9,2.85v3.15H0v-3.15c2.3-.8,4.12-1.52,5.48-2.17,1.35-.65,2.52-1.52,3.52-2.62,1-1.1,1.9-2.55,2.7-4.35.8-1.8,1.75-4.25,2.85-7.35L42.45,10.35h9.3l30,83.7c.8,2.3,1.82,4.1,3.08,5.4,1.25,1.3,3.32,2.6,6.22,3.9v3.15h-30ZM43.5,23.25l-14.55,43.95h30l-15.45-43.95Z"/>
      <path d="M143.1,109.65l-4.05-2.1,1.05-8.25c-4.7,3.6-8.6,6.05-11.7,7.35-3.1,1.3-6.4,1.95-9.9,1.95-5.5,0-9.83-1.85-12.98-5.55s-4.73-8.75-4.73-15.15v-32.1c0-4.1-.6-7.07-1.8-8.92-1.2-1.85-3.4-3.17-6.6-3.98v-3.6l20.25-2.7-.45,38.85-.15,1.65c0,2.8.05,5.15.15,7.05.1,1.9.27,3.52.52,4.88.25,1.35.57,2.5.98,3.45.4.95.9,1.83,1.5,2.62,1.1,1.4,2.65,2.53,4.65,3.38,2,.85,4.15,1.28,6.45,1.28s4.25-.32,6.15-.97c1.9-.65,4.45-1.88,7.65-3.68l1.05-38.25c0-2.1-.18-3.87-.52-5.33-.35-1.45-.95-2.7-1.8-3.75-.85-1.05-2-1.95-3.45-2.7-1.45-.75-3.33-1.47-5.62-2.18v-3.6l23.25-2.7-1.5,51.3-.15.9c0,4.5.75,7.63,2.25,9.38,1.5,1.75,4.25,2.83,8.25,3.23v3l-18.75,5.25Z"/>
      <path d="M234,69.3c0,5.9-.85,11.25-2.55,16.05-1.7,4.8-4.08,8.93-7.12,12.38-3.05,3.45-6.7,6.13-10.95,8.03-4.25,1.9-8.92,2.85-14.02,2.85-1.5,0-2.9-.1-4.2-.3-1.3-.2-2.5-.45-3.6-.75-4.5-1.4-7.2-2.1-8.1-2.1-.6,0-2.05.5-4.35,1.5l-3,1.65-3.15-3.15,2.1-26.85V29.1c0-3.9-.1-7.1-.3-9.6-.2-2.5-.55-4.52-1.05-6.08-.5-1.55-1.25-2.77-2.25-3.67-1-.9-2.25-1.7-3.75-2.4V3l18.75-3,1.95,1.95-1.95,43.5c.7-.6,1.28-1.1,1.72-1.5.45-.4.88-.75,1.28-1.05,2.8-2.1,5.82-3.75,9.08-4.95,3.25-1.2,6.42-1.8,9.52-1.8,3.8,0,7.28.83,10.43,2.48,3.15,1.65,5.87,3.93,8.17,6.83,2.3,2.9,4.1,6.4,5.4,10.5,1.3,4.1,1.95,8.55,1.95,13.35ZM221.7,73.65c0-4-.58-7.67-1.72-11.02-1.15-3.35-2.73-6.25-4.73-8.7-2-2.45-4.38-4.37-7.12-5.77-2.75-1.4-5.73-2.1-8.92-2.1-2.3,0-4.3.23-6,.68-1.7.45-3.9,1.42-6.6,2.92v36.15c0,4.8,1.2,8.68,3.6,11.62,2.4,2.95,5.6,4.42,9.6,4.42,3.1,0,6-.7,8.7-2.1,2.7-1.4,5.03-3.38,6.98-5.92,1.95-2.55,3.47-5.52,4.57-8.92,1.1-3.4,1.65-7.15,1.65-11.25Z"/>
      <path d="M297.9,93.6c-.5,1.9-1.64,3.73-3.44,5.48-1.79,1.75-4.04,3.3-6.73,4.65-2.69,1.35-5.66,2.43-8.9,3.23-3.24.8-6.51,1.2-9.8,1.2-3.89,0-7.46-.83-10.69-2.48-3.24-1.65-6.01-3.92-8.3-6.83-2.29-2.9-4.09-6.4-5.39-10.5-1.3-4.1-1.94-8.65-1.94-13.65,0-5.9.77-11.2,2.32-15.9,1.55-4.7,3.76-8.7,6.66-12,2.89-3.3,6.41-5.82,10.55-7.57,4.14-1.75,8.75-2.62,13.84-2.62,6.88,0,12.17,1.63,15.86,4.88,3.69,3.25,5.54,7.88,5.54,13.88,0,1.5-.08,3.2-.23,5.1-.15,1.9-.43,3.95-.83,6.15h-42.45v3.9c0,8.5,1.95,15.13,5.85,19.88,3.9,4.75,9.35,7.12,16.35,7.12,1.4,0,2.7-.08,3.9-.22,1.2-.15,2.5-.38,3.9-.68,1.4-.3,2.97-.75,4.72-1.35,1.75-.6,3.83-1.35,6.22-2.25l3,.6ZM286.2,54.75c0-3.2-1.23-5.9-3.69-8.1-2.46-2.2-5.5-3.3-9.12-3.3-4.22,0-7.92,1.45-11.08,4.35-3.17,2.9-5.6,7.15-7.31,12.75h29.09l2.11-2.55v-3.15Z"/>
    </g>
  </g>
</svg>