<?xml version="1.0" encoding="UTF-8"?>
<svg id="Layer_1" xmlns="http://www.w3.org/2000/svg" version="1.1" viewBox="0 0 1348 1600">
  <!-- Generator: Adobe Illustrator 29.6.1, SVG Export Plug-In . SVG Version: 2.1.1 Build 9)  -->
  <defs>
    <style>
      .st0 {
        fill: none;
        stroke: #231f20;
        stroke-miterlimit: 10;
        stroke-width: 5px;
      }
    </style>
  </defs>
  <rect class="st0" x="385.4" y="23.9" width="572.4" height="1490.9"/>
  <rect class="st0" x="191.1" y="1525" width="383.7" height="43.3" rx="5.4" ry="5.4"/>
  <rect class="st0" x="243.7" y="1494.3" width="141.6" height="30.7" rx="5.4" ry="5.4"/>
  <rect class="st0" x="768.7" y="1525" width="383.7" height="43.3" rx="5.4" ry="5.4"/>
  <rect class="st0" x="960.6" y="1494.3" width="141.6" height="30.7" rx="5.4" ry="5.4"/>
  <line class="st0" x1="906.8" y1="26.3" x2="786.3" y2="694"/>
  <line class="st0" x1="878.9" y1="25.3" x2="779" y2="695.3"/>
  <rect class="st0" x="556.7" y="694" width="229.5" height="150.5"/>
  <rect class="st0" x="581.1" y="743.5" width="183.9" height="47.9"/>
  <rect class="st0" x="481.7" y="110.3" width="380.2" height="22.8"/>
  <rect class="st0" x="490.9" y="170.8" width="361.2" height="22.8"/>
  <rect class="st0" x="496.9" y="231.7" width="349.5" height="22.8"/>
  <rect class="st0" x="506" y="292.6" width="331.4" height="22.8"/>
  <rect class="st0" x="515.4" y="355.6" width="312.6" height="22.8"/>
  <rect class="st0" x="525.7" y="418.6" width="292.8" height="22.8"/>
  <rect class="st0" x="535.3" y="478.3" width="271.6" height="22.8"/>
  <rect class="st0" x="546.1" y="540.1" width="251.1" height="22.8"/>
  <rect class="st0" x="554.4" y="601.9" width="234.3" height="22.8"/>
  <rect class="st0" x="564.1" y="663.7" width="214.9" height="22.8"/>
  <rect class="st0" x="899.3" y="70" width="58.4" height="22.8" transform="translate(1857 162.8) rotate(180)"/>
  <rect class="st0" x="886.8" y="139.9" width="70.9" height="22.8" transform="translate(1844.6 302.6) rotate(180)"/>
  <rect class="st0" x="876.1" y="200.1" width="81.6" height="22.8" transform="translate(1833.9 423) rotate(180)"/>
  <rect class="st0" x="864.9" y="263.1" width="92.8" height="22.8" transform="translate(1822.6 549) rotate(180)"/>
  <rect class="st0" x="854" y="323.2" width="103.7" height="22.8" transform="translate(1811.7 669.3) rotate(180)"/>
  <rect class="st0" x="842.5" y="385.4" width="115.2" height="22.8" transform="translate(1800.2 793.7) rotate(180)"/>
  <rect class="st0" x="831.6" y="447.6" width="125.9" height="22.8" transform="translate(1789.2 918) rotate(180)"/>
  <rect class="st0" x="821" y="509.8" width="136.6" height="22.8" transform="translate(1778.6 1042.3) rotate(180)"/>
  <rect class="st0" x="809.7" y="571.9" width="147.9" height="22.8" transform="translate(1767.3 1166.7) rotate(180)"/>
  <rect class="st0" x="798.8" y="632.2" width="158.8" height="22.8" transform="translate(1756.4 1287.2) rotate(180)"/>
  <rect class="st0" x="788.7" y="695.3" width="168.9" height="22.8" transform="translate(1746.2 1413.4) rotate(180)"/>
  <rect class="st0" x="787.2" y="758.1" width="170.3" height="22.8"/>
  <rect class="st0" x="746.1" y="70" width="19.5" height="22.8" rx="3.4" ry="3.4"/>
  <rect class="st0" x="780.1" y="70" width="19.5" height="22.8" rx="3.4" ry="3.4"/>
  <rect class="st0" x="814.1" y="70" width="19.5" height="22.8" rx="3.4" ry="3.4"/>
  <line class="st0" x1="436.2" y1="24.7" x2="556.8" y2="692.4"/>
  <line class="st0" x1="464.2" y1="23.7" x2="564.1" y2="693.7"/>
  <rect class="st0" x="385.4" y="68.4" width="58.4" height="22.8"/>
  <rect class="st0" x="385.4" y="138.3" width="70.9" height="22.8"/>
  <rect class="st0" x="385.4" y="198.5" width="81.6" height="22.8"/>
  <rect class="st0" x="385.4" y="261.5" width="92.8" height="22.8"/>
  <rect class="st0" x="385.4" y="321.6" width="103.7" height="22.8"/>
  <rect class="st0" x="385.4" y="383.8" width="115.2" height="22.8"/>
  <rect class="st0" x="385.5" y="446" width="125.9" height="22.8"/>
  <rect class="st0" x="385.5" y="508.2" width="136.6" height="22.8"/>
  <rect class="st0" x="385.5" y="570.3" width="147.9" height="22.8"/>
  <rect class="st0" x="385.5" y="630.6" width="158.8" height="22.8"/>
  <rect class="st0" x="385.5" y="693.7" width="168.9" height="22.8"/>
  <rect class="st0" x="385.5" y="756.5" width="170.3" height="22.8" transform="translate(941.4 1535.8) rotate(180)"/>
  <line class="st0" x1="906.8" y1="1510.6" x2="786.2" y2="842.9"/>
  <line class="st0" x1="878.9" y1="1511.6" x2="779" y2="841.7"/>
  <rect class="st0" x="481.7" y="1403.9" width="380.2" height="22.8"/>
  <rect class="st0" x="490.8" y="1343.4" width="361.2" height="22.8"/>
  <rect class="st0" x="496.8" y="1282.5" width="349.5" height="22.8"/>
  <rect class="st0" x="505.9" y="1221.5" width="331.4" height="22.8"/>
  <rect class="st0" x="515.3" y="1158.6" width="312.6" height="22.8"/>
  <rect class="st0" x="525.7" y="1095.6" width="292.8" height="22.8"/>
  <rect class="st0" x="535.3" y="1035.9" width="271.6" height="22.8"/>
  <rect class="st0" x="546.1" y="974.1" width="251.1" height="22.8"/>
  <rect class="st0" x="554.4" y="912.3" width="234.3" height="22.8"/>
  <rect class="st0" x="564" y="850.4" width="214.9" height="22.8"/>
  <rect class="st0" x="899.2" y="1444.2" width="58.4" height="22.8" transform="translate(1856.9 2911.2) rotate(180)"/>
  <rect class="st0" x="886.8" y="1374.3" width="70.9" height="22.8" transform="translate(1844.5 2771.4) rotate(180)"/>
  <rect class="st0" x="876.1" y="1314" width="81.6" height="22.8" transform="translate(1833.8 2650.9) rotate(180)"/>
  <rect class="st0" x="864.9" y="1251.1" width="92.8" height="22.8" transform="translate(1822.5 2524.9) rotate(180)"/>
  <rect class="st0" x="853.9" y="1190.9" width="103.7" height="22.8" transform="translate(1811.6 2404.6) rotate(180)"/>
  <rect class="st0" x="842.5" y="1128.7" width="115.2" height="22.8" transform="translate(1800.1 2280.3) rotate(180)"/>
  <rect class="st0" x="831.6" y="1066.6" width="125.9" height="22.8" transform="translate(1789.1 2155.9) rotate(180)"/>
  <rect class="st0" x="821" y="1004.4" width="136.6" height="22.8" transform="translate(1778.5 2031.6) rotate(180)"/>
  <rect class="st0" x="809.7" y="942.2" width="147.9" height="22.8" transform="translate(1767.2 1907.3) rotate(180)"/>
  <rect class="st0" x="798.8" y="882" width="158.8" height="22.8" transform="translate(1756.3 1786.8) rotate(180)"/>
  <rect class="st0" x="788.6" y="818.9" width="168.9" height="22.8" transform="translate(1746.2 1660.6) rotate(180)"/>
  <line class="st0" x1="436.2" y1="1512.3" x2="556.8" y2="844.6"/>
  <line class="st0" x1="464.1" y1="1513.3" x2="564" y2="843.3"/>
  <rect class="st0" x="385.3" y="1445.8" width="58.4" height="22.8"/>
  <rect class="st0" x="385.3" y="1375.9" width="70.9" height="22.8"/>
  <rect class="st0" x="385.3" y="1315.7" width="81.6" height="22.8"/>
  <rect class="st0" x="385.3" y="1252.7" width="92.8" height="22.8"/>
  <rect class="st0" x="385.3" y="1192.5" width="103.7" height="22.8"/>
  <rect class="st0" x="385.3" y="1130.3" width="115.2" height="22.8"/>
  <rect class="st0" x="385.5" y="1068.2" width="125.9" height="22.8"/>
  <rect class="st0" x="385.5" y="1006" width="136.6" height="22.8"/>
  <rect class="st0" x="385.5" y="943.8" width="147.9" height="22.8"/>
  <rect class="st0" x="385.5" y="883.6" width="158.8" height="22.8"/>
  <rect class="st0" x="385.5" y="820.5" width="168.9" height="22.8"/>
</svg>