<?xml version="1.0" encoding="UTF-8"?>
<svg id="Layer_1" xmlns="http://www.w3.org/2000/svg" version="1.1" viewBox="0 0 1348.4 1600">
  <!-- Generator: Adobe Illustrator 29.6.1, SVG Export Plug-In . SVG Version: 2.1.1 Build 9)  -->
  <defs>
    <style>
      .st0 {
        fill: none;
        stroke: #231f20;
        stroke-miterlimit: 10;
        stroke-width: 5px;
      }
    </style>
  </defs>
  <rect class="st0" x="592.3" y="34.3" width="706.5" height="1531.6" rx="66.1" ry="66.1"/>
  <rect class="st0" x="577.1" y="19.2" width="736.8" height="1562" rx="83" ry="83"/>
  <rect class="st0" x="567.5" y="9.3" width="754.3" height="1582.4" rx="90.3" ry="90.3"/>
  <rect class="st0" x="929.3" y="53.1" width="33" height="33" rx="16.5" ry="16.5"/>
  <rect class="st0" x="1321.8" y="296.8" width="7.4" height="211.6" rx="3.7" ry="3.7"/>
  <rect class="st0" x="1321.7" y="614.1" width="7.4" height="116.8" rx="3.7" ry="3.7"/>
  <rect class="st0" x="18.2" y="296.8" width="7.4" height="211.6" rx="3.7" ry="3.7"/>
  <rect class="st0" x="18.1" y="614.1" width="7.4" height="116.8" rx="3.7" ry="3.7"/>
  <rect class="st0" x="26.4" y="9.3" width="754.3" height="1582.4" rx="90.3" ry="90.3"/>
  <rect class="st0" x="35.1" y="19.5" width="736.8" height="1562" rx="83" ry="83"/>
  <rect class="st0" x="292.2" y="208.7" width="41.6" height="41.6" rx="20.8" ry="20.8"/>
  <rect class="st0" x="139.1" y="121.9" width="41.6" height="41.6" rx="20.8" ry="20.8"/>
  <rect class="st0" x="103" y="86.3" width="112.8" height="112.8" rx="56.4" ry="56.4"/>
  <rect class="st0" x="81.9" y="65.3" width="154.3" height="154.3" rx="77.1" ry="77.1"/>
  <rect class="st0" x="139.1" y="295.1" width="41.6" height="41.6" rx="20.8" ry="20.8"/>
  <rect class="st0" x="103" y="259.5" width="112.8" height="112.8" rx="56.4" ry="56.4"/>
  <rect class="st0" x="81.9" y="238.5" width="154.3" height="154.3" rx="77.1" ry="77.1"/>
  <rect class="st0" x="140" y="468.3" width="41.6" height="41.6" rx="20.8" ry="20.8"/>
  <rect class="st0" x="103.9" y="432.7" width="112.8" height="112.8" rx="56.4" ry="56.4"/>
  <rect class="st0" x="82.8" y="411.7" width="154.3" height="154.3" rx="77.1" ry="77.1"/>
</svg>