<?xml version="1.0" encoding="UTF-8"?>
<svg id="Layer_1" xmlns="http://www.w3.org/2000/svg" version="1.1" viewBox="0 0 44.1 44">
  <!-- Generator: Adobe Illustrator 29.6.1, SVG Export Plug-In . SVG Version: 2.1.1 Build 9)  -->
  <defs>
    <style>
      .st0 {
        fill: #29b5e8;
      }
    </style>
  </defs>
  <g id="Page-1">
    <g id="Group">
      <path id="Path" class="st0" d="M37.6,33.4l-9.2-5.3c-1.3-.7-2.9-.3-3.7,1-.3.5-.4,1.1-.3,1.6v10.4c0,1.5,1.2,2.7,2.7,2.7s2.7-1.2,2.7-2.7v-6l5.1,3c1.3.7,2.9.3,3.7-1,.7-1.3.3-2.9-1-3.7"/>
      <path id="Path2" class="st0" d="M14.8,22.1c0-1-.5-1.8-1.3-2.3l-9.2-5.3c-.4-.2-.9-.4-1.3-.4-.9,0-1.8.5-2.3,1.3-.7,1.3-.3,2.9,1,3.6l5.3,3.1-5.3,3.1c-.6.4-1,.9-1.2,1.6-.2.7,0,1.4.3,2,.5.8,1.3,1.3,2.3,1.3s.9-.1,1.3-.4l9.2-5.3c.8-.5,1.3-1.4,1.3-2.3"/>
      <path id="Path3" class="st0" d="M6.4,10.7l9.2,5.3c1.1.6,2.4.4,3.2-.4.5-.5.9-1.2.9-2V3c0-1.5-1.2-2.7-2.7-2.7s-2.7,1.2-2.7,2.7v6l-5.2-3c-1.3-.7-2.9-.3-3.7,1-.7,1.3-.3,2.9,1,3.7"/>
      <path id="Combined-Shape" class="st0" d="M27,22.5c0,.2-.1.5-.3.6l-3.6,3.6c-.1.1-.4.3-.6.3h-.9c-.2,0-.5-.1-.6-.3l-3.6-3.6c-.1-.1-.3-.4-.3-.6v-.9c0-.2.1-.5.3-.6l3.6-3.6c.1-.1.4-.3.6-.3h.9c.2,0,.5.1.6.3l3.6,3.6c.1.1.3.4.3.6v.9ZM23.8,22h0c0-.2,0-.4-.2-.5l-1.1-1.1c-.1-.1-.3-.2-.5-.2h0c-.1,0-.4,0-.5.2l-1.1,1.1c-.1.1-.2.3-.2.5h0c0,.2,0,.4.2.5l1.1,1.1c.1.1.3.2.5.2h0c.2,0,.4,0,.5-.2l1.1-1.1c.1-.1.2-.3.2-.5Z"/>
      <path id="Path4" class="st0" d="M28.5,16l9.2-5.3c1.3-.7,1.7-2.4,1-3.7-.7-1.3-2.4-1.7-3.7-1l-5.1,3V3c0-1.5-1.2-2.7-2.7-2.7s-2.7,1.2-2.7,2.7v10.4c0,.5,0,1.1.3,1.6.7,1.3,2.4,1.7,3.7,1"/>
      <path id="Path5" class="st0" d="M17.4,27.8c-.6-.1-1.3,0-1.8.3l-9.2,5.3c-1.3.7-1.7,2.4-1,3.7.7,1.3,2.4,1.7,3.7,1l5.2-3v6c0,1.5,1.2,2.7,2.7,2.7s2.7-1.2,2.7-2.7v-10.6c0-1.3-1-2.4-2.3-2.7"/>
      <path id="Path6" class="st0" d="M43.4,15.4c-.7-1.3-2.4-1.7-3.7-1l-9.2,5.3c-.9.5-1.4,1.4-1.3,2.4,0,.9.5,1.9,1.3,2.4l9.2,5.3c1.3.7,2.9.3,3.7-1,.7-1.3.3-2.9-1-3.7l-5.2-3,5.2-3c1.3-.7,1.7-2.4,1-3.7"/>
    </g>
  </g>
</svg>