<?xml version="1.0" encoding="UTF-8"?>
<svg id="Layer_1" data-name="Layer 1" xmlns="http://www.w3.org/2000/svg" viewBox="0 0 1919.94 548.57">
  <defs>
    <style>
      .cls-1 {
        fill: #01a982;
      }
    </style>
  </defs>
  <path d="M1084.77,0c5.42.91,10.42,1.72,15.39,2.76,12.83,2.68,25.77,4.96,38.42,8.31,23.51,6.23,45.09,16.92,64.76,31.1,12.91,9.31,25.01,19.79,34.17,33,7.79,11.24,15.93,22.44,22.07,34.59,8.49,16.79,13.56,34.88,16.93,53.56,3.48,19.31,4.14,38.68,3.23,58.06-.82,17.58-3.95,34.95-9.26,51.87-5.48,17.49-13.05,33.91-23.36,49.09-14.99,22.07-34.01,39.75-56.88,53.48-23.98,14.4-49.85,23.59-77.32,28.2-12.76,2.14-25.7,4.29-38.58,4.47-56.44.76-112.89.85-169.34,1.09-25.44.11-50.88.02-76.33.02h-4.95v138.54c-36.59.43-73.18.43-110.2,0-.43-183-.43-365.57-.43-548.15C836.84,0,960.59,0,1084.77,0M1040.86,104.23h-216.9v199.31h5.18c74.04,0,148.08.06,222.13-.08,9.3-.02,18.7-.47,27.86-1.9,16.14-2.52,32.23-6,46.17-15.04,7.45-4.84,14.93-10.35,20.61-17.08,14.33-16.99,19.12-37.77,19.56-59.44.21-10.56-1.01-21.26-2.7-31.72-2.4-14.9-8.63-28.4-18.41-39.96-13.7-16.18-32.11-24.59-52.14-29.36-16.5-3.92-33.44-5.09-51.35-4.74Z"/>
  <path d="M465.31,0C502.21,0,539.11,0,576.43.43c.43,183,.43,365.57.43,548.15-36.9,0-73.79,0-111.11-.43-.43-74.7-.43-148.98-.43-223.27H109.66v223.7H0c0-182.86,0-365.71,0-548.57C36.3,0,72.55,0,109.23.43c.43,72.87.43,145.32.43,217.78h355.66V0Z"/>
  <path class="cls-1" d="M1380.03,548.57c-.43-114.41-.43-228.81-.43-343.77h539.91c.43,34.76.43,69.52,0,104.71-142.98.43-285.52.43-428.08.43v134.4h428.51v104.23h-539.91Z"/>
  <path d="M1919.94,103.8c-142.81.43-285.62.43-428.78.43v51.01h-111.56V.43C1559.6,0,1739.61,0,1919.94,0v103.8Z"/>
</svg>