<?xml version="1.0" encoding="UTF-8"?>
<svg xmlns="http://www.w3.org/2000/svg" viewBox="0 0 115.9 21.8">
  <defs>
    <style>
      .cls-1 {
        fill: #009ddf;
      }
    </style>
  </defs>
  <g id="Layer_1" data-name="Layer 1" focusable="false">
    <path d="M7.8,3.25C3.25,3.25,0,6.64,0,10.66s3.25,7.36,7.75,7.36,7.8-3.39,7.8-7.41-3.25-7.36-7.75-7.36h0ZM7.8,13.81c-1.74,0-3-1.5-3-3.2s1.16-3.15,2.95-3.15,3,1.5,3,3.2-1.16,3.15-2.95,3.15h0ZM70.69,3.25c-4.55,0-7.8,3.39-7.8,7.41s3.25,7.36,7.75,7.36,7.8-3.39,7.8-7.41-3.25-7.36-7.75-7.37ZM70.69,13.81c-1.74,0-3-1.5-3-3.2s1.16-3.15,2.96-3.15,3,1.5,3,3.2c-.05,1.7-1.16,3.15-2.96,3.15ZM16.62,3.59h4.94v1.99c.92-1.16,2.23-2.28,4.22-2.28,3,0,4.8,1.99,4.8,5.18v9.26h-4.94v-7.7c0-1.55-.82-2.37-1.99-2.37s-2.08.82-2.08,2.37v7.65h-4.94V3.58h0ZM45.79,11c0-4.17-2.23-7.7-7.12-7.7-4.22-.05-7.12,3.25-7.12,7.37,0,4.36,3.15,7.36,7.56,7.36,2.81,0,4.8-1.16,6.15-2.86l-2.76-2.28c-1.02.97-1.94,1.45-3.15,1.45-1.55,0-2.66-.78-3.05-2.33h9.45c.05-.34.05-.73.05-1.02ZM36.19,9.45c.24-1.55,1.16-2.57,2.47-2.57s2.28.97,2.47,2.57h-4.94ZM56.06,3.25c-2.13,0-3.3,1.02-4.26,2.18v-1.89h-4.94v18.27h4.94v-5.86c.92,1.07,2.18,2.03,4.31,2.03,3.34,0,6.25-2.81,6.25-7.41-.05-4.51-2.91-7.32-6.3-7.32h0ZM54.56,13.86c-1.6,0-2.86-1.36-2.86-3.25s1.26-3.2,2.86-3.2,2.91,1.36,2.91,3.2-1.31,3.25-2.91,3.25ZM84.55,3.59h-4.94v14.1h4.94V3.59ZM86.25,3.59h4.94v1.99c.92-1.16,2.23-2.28,4.22-2.28,3,0,4.8,1.99,4.8,5.18v9.26h-4.94v-7.7c0-1.55-.82-2.37-1.99-2.37s-2.08.82-2.08,2.37v7.65h-4.94V3.58h0ZM102.72,17.68V7.56h-1.65v-3.97h1.65V0h4.99v3.59h3.29v3.97h-3.29v10.13h-4.99Z"/>
    <path class="cls-1" d="M115.9,15.02c0,1.65-1.32,3-2.97,3-.01,0-.02,0-.03,0-1.65,0-3-1.32-3-2.97,0-.01,0-.02,0-.03,0-1.65,1.32-3,2.97-3,.01,0,.02,0,.03,0,1.65-.05,3,1.31,3,3Z"/>
  </g>
</svg>